<?xml version="1.0" standalone="no"?>
<!DOCTYPE svg PUBLIC "-//W3C//DTD SVG 20010904//EN" "http://www.w3.org/TR/2001/REC-SVG-20010904/DTD/svg10.dtd">
<svg version="1.0" xmlns="http://www.w3.org/2000/svg" width="260.000000pt" height="260.000000pt" viewBox="0 0 260.000000 260.000000" preserveAspectRatio="xMidYMid meet">
    <g transform="translate(0.000000,260.000000) scale(0.100000,-0.100000)" fill="#000000" stroke="none">
        <path d="M1183 2584 c-4 -10 10 -49 35 -95 22 -44 38 -79 36 -79 -3 0 -24 13 -47 29 -73 49 -104 62 -115 48 -16 -18 -11 -235 5 -249 9 -7 29 0 75 29 35 22 68 42 74 46 7 4 -6 -29 -29 -72 -46 -90 -44 -111 8 -111 32 0 35 -2 35 -30 0 -26 -6 -32 -50 -51 -123 -53 -180 -210 -125 -343 18 -44 18 -46 1 -46 -26 0 -58 -52 -54 -87 2 -18 3 -33 2 -33 -1 0 -14 6 -29 14 -25 13 -26 14 -7 27 81 58 19 189 -68 144 -27 -14 -28 -14 -26 10 4 34 -28 83 -59 91 -19 5 -35 0 -54 -14 -25 -18 -28 -19 -28 -4 0 41 -4 53 -23 72 -24 24 -82 27 -100 5 -11 -14 -15 -12 -30 13 -33 54 -112 49 -133 -7 -11 -29 -11 -29 -22 -8 -17 35 -53 48 -89 33 -61 -25 -69 -95 -16 -139 l28 -24 -36 -19 c-20 -10 -58 -41 -84 -68 l-48 -49 0 32 c0 37 -38 81 -69 81 -35 0 -73 -42 -74 -80 0 -19 4 -43 8 -52 5 -12 3 -18 -7 -18 -8 0 -24 -10 -36 -22 -64 -69 -4 -175 76 -134 28 15 28 14 24 -15 -2 -16 -8 -26 -13 -23 -6 3 -23 10 -40 14 -65 19 -104 -75 -57 -135 18 -24 26 -27 62 -22 37 4 39 4 15 -7 -47 -20 -59 -36 -59 -80 0 -48 30 -86 68 -86 23 0 30 -14 12 -25 -14 -9 -12 -78 3 -96 6 -9 23 -22 37 -31 14 -9 34 -38 44 -64 21 -55 120 -255 174 -353 48 -89 62 -115 62 -121 0 -3 -19 -11 -43 -17 -57 -16 -90 -43 -116 -98 -38 -82 -17 -176 52 -229 54 -41 86 -42 262 -2 162 35 388 78 480 91 83 11 316 14 380 5 33 -5 83 -11 110 -15 28 -3 66 -8 85 -11 54 -8 424 -85 432 -90 3 -2 31 -7 61 -10 68 -7 125 19 162 74 70 107 19 252 -101 284 -43 12 -53 24 -35 44 8 9 74 130 141 259 20 39 53 110 75 158 22 51 48 93 59 99 12 6 26 18 33 27 15 19 17 87 3 96 -17 10 -11 25 9 25 36 0 73 42 73 82 0 46 -5 54 -50 78 l-37 20 41 -6 c36 -5 43 -3 62 21 34 43 23 121 -19 132 -20 6 -20 6 1 25 28 26 39 58 33 90 -6 31 -38 68 -58 68 -18 0 -18 1 -5 35 19 50 -25 115 -79 115 -27 0 -61 -46 -61 -83 l0 -30 -48 50 c-27 28 -65 58 -86 68 l-37 18 32 26 c21 18 32 37 34 57 5 82 -104 121 -137 49 l-12 -26 -12 31 c-25 58 -100 64 -133 9 -16 -26 -20 -28 -31 -14 -27 32 -116 7 -121 -35 -1 -5 -2 -16 -3 -22 -4 -29 18 -70 43 -80 l26 -10 -30 -15 c-16 -9 -32 -15 -35 -14 -2 1 -3 17 -1 36 4 47 -37 90 -77 80 -15 -4 -34 -13 -43 -21 -38 -34 -27 -112 18 -133 25 -11 25 -12 7 -26 -26 -20 -34 -18 -34 5 0 31 -22 69 -44 77 -37 12 -45 11 -70 -8 -46 -36 -43 -99 7 -140 20 -16 20 -16 -9 -26 -29 -10 -30 -10 -26 23 3 25 -2 39 -20 57 -13 13 -31 26 -39 29 -11 4 -12 9 -2 29 26 53 35 102 29 151 -14 100 -78 187 -158 214 -27 9 -34 17 -36 42 -3 31 -2 32 33 32 54 0 55 21 5 114 l-43 80 31 -20 c154 -96 150 -98 150 56 0 150 -10 160 -103 94 -78 -55 -81 -52 -35 33 60 110 58 113 -80 113 -93 0 -112 -3 -117 -16z m-677 -800 c-1 -1 -18 -4 -39 -7 -37 -6 -37 -5 -22 16 8 12 15 30 15 41 0 15 5 11 23 -15 13 -19 23 -34 23 -35z m1654 -9 c0 -1 -15 1 -34 3 l-35 4 22 33 21 33 13 -37 c7 -20 13 -36 13 -36z m-1536 19 c10 -27 7 -31 -19 -26 -28 5 -31 12 -13 30 16 16 25 15 32 -4z m1384 4 c18 -18 15 -25 -13 -30 -26 -5 -29 -1 -19 26 7 19 16 20 32 4z m-1246 -57 c2 -22 1 -38 -2 -37 -3 1 -18 8 -33 16 l-28 14 28 23 c15 12 29 22 29 23 1 0 4 -18 6 -39z m131 -73 c-8 -42 -7 -42 -32 -26 -20 12 -20 13 7 35 15 12 28 22 29 23 1 0 0 -15 -4 -32z m-256 -78 c34 -16 119 -63 189 -106 139 -84 223 -122 332 -150 l70 -18 4 -54 c3 -53 -2 -64 -31 -69 -35 -5 -33 -23 11 -115 25 -51 44 -94 43 -96 -2 -2 -26 9 -53 25 -65 36 -74 28 -75 -66 -1 -89 8 -99 61 -72 54 27 55 27 36 -11 -37 -71 -123 -128 -195 -128 -44 0 -91 23 -123 61 -41 49 -50 77 -31 105 22 34 51 30 71 -8 16 -30 17 -31 30 -13 8 10 14 39 14 63 0 54 -41 102 -88 102 -28 0 -32 5 -47 50 -18 53 -58 110 -78 110 -19 0 -47 -81 -48 -138 -1 -47 -4 -52 -24 -52 -58 0 -93 -98 -56 -157 24 -38 41 -42 41 -10 0 50 40 68 70 30 50 -63 -20 -186 -121 -213 -53 -15 -105 -3 -156 33 -55 39 -44 55 40 59 49 2 62 7 65 20 4 23 -46 135 -64 142 -7 3 -23 -7 -34 -22 -11 -15 -30 -38 -40 -52 l-20 -25 1 90 c1 133 1 135 -18 135 -10 0 -36 -11 -58 -25 -22 -13 -43 -25 -47 -25 -18 -1 -41 123 -45 235 -5 187 35 298 128 359 77 52 142 53 246 6z m1541 13 c72 -34 129 -114 151 -213 20 -89 -2 -367 -32 -397 -3 -2 -28 8 -55 24 -71 39 -77 30 -74 -100 l2 -102 -20 25 c-10 14 -29 37 -40 52 -11 15 -27 25 -34 22 -18 -7 -68 -119 -64 -142 3 -14 16 -18 71 -20 53 -2 67 -6 67 -19 0 -30 -91 -83 -142 -83 -33 0 -98 27 -129 52 -35 29 -66 119 -54 158 6 19 44 39 62 33 7 -3 15 -20 19 -39 7 -41 16 -42 43 -9 42 55 5 165 -56 165 -21 0 -23 4 -23 58 0 61 -24 125 -50 130 -17 3 -68 -69 -76 -108 -10 -46 -13 -50 -42 -50 -39 0 -80 -34 -90 -73 -18 -69 20 -129 46 -72 20 44 72 26 72 -26 0 -39 -40 -91 -90 -117 -86 -44 -185 -11 -250 83 -18 26 -30 48 -28 51 3 2 24 -5 47 -17 29 -14 47 -17 53 -11 15 15 14 150 -1 165 -9 9 -23 6 -63 -15 -29 -15 -53 -27 -54 -25 -1 1 14 34 33 72 52 104 56 123 30 137 -12 6 -24 11 -27 10 -3 -1 -6 24 -8 57 l-3 59 38 7 c101 18 227 74 371 162 228 140 302 161 400 116z m-946 -82 c-2 -23 -6 -41 -9 -41 -2 0 -24 5 -47 11 l-43 11 23 23 c13 13 24 33 24 45 0 19 2 20 28 6 25 -13 27 -19 24 -55z m218 -11 c16 -10 4 -16 -45 -24 l-40 -7 3 44 c3 34 9 47 25 54 19 9 23 6 34 -25 6 -19 17 -38 23 -42z m-1267 53 c-16 -41 -33 -68 -33 -51 0 9 -7 24 -16 32 -8 9 -14 16 -12 17 2 0 14 3 27 5 14 2 27 7 30 9 9 9 10 5 4 -12z m2281 4 c11 11 6 -14 -7 -39 l-13 -25 -16 38 -16 38 23 -9 c13 -5 26 -6 29 -3z m49 -168 c-31 -13 -41 -10 -45 15 -5 24 -5 24 29 8 29 -14 31 -17 16 -23z m-1132 -790 c17 -12 21 -21 16 -41 -8 -31 -30 -40 -98 -40 -68 1 -88 9 -95 38 -8 33 6 46 58 53 64 9 94 6 119 -10z m-466 -31 c53 -24 14 -77 -59 -80 -48 -2 -73 21 -56 51 19 37 70 50 115 29z m877 -18 c20 -25 9 -59 -20 -61 -9 0 -24 -2 -34 -4 -22 -4 -78 31 -78 49 0 49 96 61 132 16z"/>
    </g>
</svg>
